<svg width="195" height="51" viewBox="0 0 195 51" fill="none" xmlns="http://www.w3.org/2000/svg">
<path d="M46.4221 38.25C43.0975 38.25 40.1756 37.496 37.6565 35.9879C37.9992 33.503 38.9246 32.2606 40.4327 32.2606C40.964 32.2606 41.7951 32.5262 42.9262 33.0575C44.0572 33.5716 45.3425 33.8286 46.782 33.8286C48.787 33.8286 49.7896 33.0917 49.7896 31.6179C49.7896 30.127 47.9559 28.8846 44.2886 27.8906C40.6212 26.8795 38.7875 24.9516 38.7875 22.1069C38.7875 19.9819 39.6358 18.3196 41.3324 17.12C43.0461 15.9204 45.1968 15.3206 47.7845 15.3206C50.4922 15.3206 52.8914 15.809 54.9821 16.7858C54.8107 19.562 54.0653 20.9501 52.7457 20.9501C52.3516 20.9501 51.6746 20.7188 50.715 20.2561C49.7724 19.7762 48.6928 19.5363 47.4761 19.5363C45.4367 19.5363 44.4171 20.2475 44.4171 21.6699C44.4171 22.938 46.2507 24.0948 49.9181 25.1401C53.5854 26.1855 55.4191 28.1048 55.4191 30.8982C55.4191 32.8347 54.6137 34.5484 53.0028 36.0393C51.3919 37.5131 49.1983 38.25 46.4221 38.25Z" fill="#0066F5"/>
<path d="M66.5239 24.9859C71.2366 22.7581 73.7472 20.2218 74.0557 17.377C74.1757 16.2117 75.5466 15.629 78.1686 15.629C79.6767 15.629 80.8506 15.9718 81.6903 16.6573C80.6278 20.753 77.4317 23.8977 72.1021 26.0912C77.5174 28.9531 80.902 32.629 82.2558 37.119C81.2276 37.8044 80.0451 38.1472 78.7084 38.1472C76.4806 38.1472 75.1268 37.4531 74.6469 36.065C73.2588 32.192 70.5512 29.4501 66.5239 27.8392V37.8901H60.4831V5.83518C60.4831 4.96119 60.3974 4.13861 60.2261 3.36744C60.0718 2.59627 59.8148 1.92792 59.4549 1.3624C60.4488 0.454133 61.717 0 63.2593 0C65.4357 0 66.5239 1.07964 66.5239 3.23891V24.9859Z" fill="#0066F5"/>
<path d="M102.358 34.8312C99.9927 37.1104 97.4735 38.25 94.8001 38.25C92.4181 38.25 90.4473 37.5388 88.8878 36.1164C87.3455 34.6769 86.5743 32.689 86.5743 30.1527V21.2586C86.5743 19.2535 86.2744 17.7626 85.6746 16.7858C86.6343 16.0489 87.8682 15.6804 89.3763 15.6804C91.4841 15.6804 92.5381 16.7601 92.5381 18.9194V27.7878C92.5381 29.69 92.8808 31.1895 93.5663 32.2863C94.2689 33.3659 95.4428 33.9058 97.0879 33.9058C99.1958 33.9058 100.944 33.0232 102.332 31.2581V21.2586C102.332 19.2535 102.032 17.7626 101.432 16.7858C102.392 16.0489 103.669 15.6804 105.262 15.6804C107.336 15.6804 108.373 16.7601 108.373 18.9194V39.8952C108.373 47.2984 104.363 51 96.3425 51C93.0693 51 90.4045 50.3659 88.348 49.0978C86.3087 47.8296 85.2891 46.4158 85.2891 44.8564C85.2891 43.314 86.2487 42.0973 88.1681 41.2062C90.0532 44.685 92.718 46.4244 96.1625 46.4244C100.293 46.4244 102.358 44.3594 102.358 40.2293V34.8312Z" fill="#0066F5"/>
<path d="M125.544 34.1628C126.367 34.1628 127.249 33.9572 128.192 33.5459C129.134 33.1174 129.991 32.4062 130.762 31.4123V21.7727C129.511 20.3674 127.986 19.6648 126.187 19.6648C124.37 19.6648 122.931 20.316 121.868 21.6184C120.823 22.9209 120.3 24.6431 120.3 26.7853C120.3 28.8589 120.754 30.6069 121.663 32.0292C122.571 33.4516 123.865 34.1628 125.544 34.1628ZM136.88 30.1784C136.88 33.0746 137.334 35.5166 138.243 37.5045C136.632 38.6699 135.107 39.2525 133.667 39.2525C132.159 39.2525 131.302 37.8901 131.097 35.1653C129.177 37.2218 126.769 38.25 123.873 38.25C120.789 38.25 118.329 37.2389 116.496 35.2167C114.679 33.1774 113.771 30.5897 113.771 27.4536C113.771 24.0091 114.893 21.13 117.138 18.8165C119.383 16.503 122.082 15.3463 125.236 15.3463C127.498 15.3463 129.34 16.0318 130.762 17.4027V5.83518C130.762 4.96119 130.668 4.13861 130.48 3.36744C130.308 2.59627 130.025 1.92792 129.631 1.3624C130.745 0.454133 132.056 0 133.564 0C135.775 0 136.88 1.07964 136.88 3.23891V30.1784Z" fill="#0066F5"/>
<path d="M162.123 39.2268C160.581 39.2268 159.724 38.0272 159.553 35.628C157.325 37.376 154.977 38.25 152.509 38.25C149.802 38.25 147.411 37.316 145.337 35.4481C143.281 33.563 142.253 30.941 142.253 27.5822C142.253 24.1719 143.392 21.2843 145.672 18.9194C147.951 16.5373 151.233 15.3463 155.517 15.3463C159.064 15.3463 162.363 15.8947 165.414 16.9914V31.438C165.414 33.4602 165.851 35.4824 166.725 37.5045C164.942 38.6527 163.409 39.2268 162.123 39.2268ZM154.874 33.8286C156.502 33.8286 157.976 33.2717 159.296 32.1578V20.4617C157.788 19.7248 156.142 19.3564 154.36 19.3564C150.641 19.3564 148.782 21.6699 148.782 26.2969C148.782 28.7818 149.365 30.6583 150.53 31.9264C151.712 33.1946 153.161 33.8286 154.874 33.8286Z" fill="#0066F5"/>
<path d="M187.34 26.5025C187.34 24.1033 186.963 22.3982 186.209 21.3871C185.455 20.376 184.35 19.8705 182.893 19.8705C181.368 19.8705 179.749 20.4274 178.035 21.5413V37.8901H171.968V5.83518C171.968 4.96119 171.891 4.13861 171.737 3.36744C171.6 2.59627 171.36 1.92792 171.017 1.3624C172.183 0.454133 173.494 0 174.95 0C177.007 0 178.035 1.07964 178.035 3.23891V18.1225C180.297 16.2717 182.782 15.3463 185.49 15.3463C187.598 15.3463 189.44 16.0575 191.016 17.4798C192.61 18.8851 193.407 20.9672 193.407 23.7263V32.6205C193.407 33.4945 193.484 34.317 193.638 35.0882C193.793 35.8594 194.033 36.5277 194.358 37.0932C193.433 37.8301 192.147 38.1986 190.502 38.1986C188.394 38.1986 187.34 37.119 187.34 34.9597V26.5025Z" fill="#0066F5"/>
<path fill-rule="evenodd" clip-rule="evenodd" d="M11.2953 16.5415C15.5832 8.93585 23.9914 9.09156 30.4172 13.7867L23.0212 18.2662C23.0212 18.2662 16.8528 15.5833 14.0921 18.9549C13.068 19.967 12.7566 20.9611 12.8883 21.9073C13.2536 24.5543 16.1222 26.4228 16.236 27.6924C14.9425 26.2551 12.9662 25.0095 12.1817 23.3925C11.6367 22.2607 11.3492 20.7455 12.0918 19.1226C12.0918 19.1226 14.3496 13.5052 22.9913 16.1882L26.0395 14.3317C25.9557 14.2538 25.8718 14.176 25.782 14.1161C20.5898 10.6486 14.4993 12.3973 11.2953 16.5415Z" fill="#022B69"/>
<path fill-rule="evenodd" clip-rule="evenodd" d="M28.6319 31.0819C24.344 38.6935 15.9359 38.5378 9.51001 33.8427L16.906 29.3572C16.906 29.3572 23.0744 32.0401 25.8352 28.6685C26.8592 27.6624 27.1706 26.6623 27.0389 25.722C26.6736 23.075 23.799 21.2006 23.6852 19.931C24.9848 21.3742 26.961 22.6139 27.7456 24.2368C28.2845 25.3627 28.572 26.8838 27.8354 28.5068C27.8354 28.5068 25.5717 34.1242 16.93 31.4412L13.8877 33.2977C13.9716 33.3696 14.0494 33.4534 14.1453 33.5133C19.3374 36.9808 25.4279 35.2321 28.6319 31.0819Z" fill="#0066F5"/>
</svg>
