<svg width="200" height="200" viewBox="0 0 200 200" fill="none" xmlns="http://www.w3.org/2000/svg">
<path fill-rule="evenodd" clip-rule="evenodd" d="M157.146 185.714H171.432V200H157.146V185.714ZM185.713 185.714H199.999V200H185.713V185.714ZM185.712 114.286H199.998V171.429H157.14V157.143H142.854V200H114.282V114.286H157.14V128.571H185.712V114.286ZM28.5672 142.857H57.1392V171.429H28.5672V142.857ZM0 200H85.7161V114.286H0V200ZM171.422 57.1429H142.85V28.5714H171.422V57.1429ZM114.284 0V85.7143H200V0H114.284ZM28.5672 28.5715H57.1392V57.1429H28.5672V28.5715ZM0.00108798 85.7143H85.7171V0H0.00108798V85.7143Z" fill="#1D1E24" fill-opacity="0.44"/>
</svg>
