<svg width="74" height="29" viewBox="0 0 74 29" fill="none" xmlns="http://www.w3.org/2000/svg">
<rect width="74" height="29" rx="14.5" fill="#D25B5D"/>
<path d="M17.1992 11.3008L16.0918 11.957C15.8848 11.5977 15.6875 11.3633 15.5 11.2539C15.3047 11.1289 15.0527 11.0664 14.7441 11.0664C14.3652 11.0664 14.0508 11.1738 13.8008 11.3887C13.5508 11.5996 13.4258 11.8652 13.4258 12.1855C13.4258 12.627 13.7539 12.9824 14.4102 13.252L15.3125 13.6211C16.0469 13.918 16.584 14.2812 16.9238 14.7109C17.2637 15.1367 17.4336 15.6602 17.4336 16.2812C17.4336 17.1133 17.1562 17.8008 16.6016 18.3438C16.043 18.8906 15.3496 19.1641 14.5215 19.1641C13.7363 19.1641 13.0879 18.9316 12.5762 18.4668C12.0723 18.002 11.7578 17.3477 11.6328 16.5039L13.0156 16.1992C13.0781 16.7305 13.1875 17.0977 13.3438 17.3008C13.625 17.6914 14.0352 17.8867 14.5742 17.8867C15 17.8867 15.3535 17.7441 15.6348 17.459C15.916 17.1738 16.0566 16.8125 16.0566 16.375C16.0566 16.1992 16.0312 16.0391 15.9805 15.8945C15.9336 15.7461 15.8574 15.6113 15.752 15.4902C15.6504 15.3652 15.5176 15.25 15.3535 15.1445C15.1895 15.0352 14.9941 14.9316 14.7676 14.834L13.8945 14.4707C12.6562 13.9473 12.0371 13.1816 12.0371 12.1738C12.0371 11.4941 12.2969 10.9258 12.8164 10.4688C13.3359 10.0078 13.9824 9.77734 14.7559 9.77734C15.7988 9.77734 16.6133 10.2852 17.1992 11.3008ZM23.6654 16.457H19.5755C19.6107 16.9258 19.763 17.2988 20.0326 17.5762C20.3021 17.8496 20.6478 17.9863 21.0697 17.9863C21.3978 17.9863 21.6693 17.9082 21.8841 17.752C22.0951 17.5957 22.3353 17.3066 22.6048 16.8848L23.7181 17.5059C23.5462 17.7988 23.3646 18.0508 23.1732 18.2617C22.9818 18.4688 22.7767 18.6406 22.558 18.7773C22.3392 18.9102 22.1029 19.0078 21.849 19.0703C21.5951 19.1328 21.3197 19.1641 21.0228 19.1641C20.1712 19.1641 19.4877 18.8906 18.972 18.3438C18.4564 17.793 18.1986 17.0625 18.1986 16.1523C18.1986 15.25 18.4486 14.5195 18.9486 13.9609C19.4525 13.4102 20.1205 13.1348 20.9525 13.1348C21.7923 13.1348 22.4564 13.4023 22.9447 13.9375C23.4291 14.4688 23.6712 15.2051 23.6712 16.1465L23.6654 16.457ZM22.3119 15.3789C22.1283 14.6758 21.6849 14.3242 20.9818 14.3242C20.8216 14.3242 20.6712 14.3496 20.5306 14.4004C20.39 14.4473 20.2611 14.5176 20.1439 14.6113C20.0306 14.7012 19.933 14.8105 19.8509 14.9395C19.7689 15.0684 19.7064 15.2148 19.6634 15.3789H22.3119ZM24.7527 13.293H26.0769V13.8203C26.5378 13.3633 27.0573 13.1348 27.6355 13.1348C28.2995 13.1348 28.8171 13.3438 29.1882 13.7617C29.5085 14.1172 29.6687 14.6973 29.6687 15.502V19H28.3445V15.8125C28.3445 15.25 28.2663 14.8613 28.1101 14.6465C27.9577 14.4277 27.6804 14.3184 27.278 14.3184C26.8405 14.3184 26.53 14.4629 26.3464 14.752C26.1667 15.0371 26.0769 15.5352 26.0769 16.2461V19H24.7527V13.293ZM35.1856 9.10352H36.5098V19H35.1856V18.4023C34.6661 18.9102 34.0782 19.1641 33.422 19.1641C32.6407 19.1641 31.9923 18.8789 31.4766 18.3086C30.9649 17.7266 30.7091 17 30.7091 16.1289C30.7091 15.2773 30.9649 14.5664 31.4766 13.9961C31.9845 13.4219 32.6231 13.1348 33.3927 13.1348C34.0606 13.1348 34.6583 13.4082 35.1856 13.9551V9.10352ZM32.0567 16.1289C32.0567 16.6758 32.2032 17.1211 32.4962 17.4648C32.797 17.8125 33.1759 17.9863 33.6329 17.9863C34.1212 17.9863 34.5157 17.8184 34.8165 17.4824C35.1173 17.1348 35.2677 16.6934 35.2677 16.1582C35.2677 15.623 35.1173 15.1816 34.8165 14.834C34.5157 14.4941 34.1251 14.3242 33.6446 14.3242C33.1915 14.3242 32.8126 14.4961 32.5079 14.8398C32.2071 15.1875 32.0567 15.6172 32.0567 16.1289ZM40.9578 14.4355C40.9578 13.1621 41.4246 12.0684 42.3582 11.1543C43.2879 10.2402 44.4051 9.7832 45.7098 9.7832C46.9988 9.7832 48.1043 10.2441 49.0262 11.166C49.952 12.0879 50.4148 13.1953 50.4148 14.4883C50.4148 15.7891 49.95 16.8926 49.0203 17.7988C48.0867 18.709 46.9598 19.1641 45.6395 19.1641C44.4715 19.1641 43.4227 18.7598 42.493 17.9512C41.4695 17.0566 40.9578 15.8848 40.9578 14.4355ZM42.3348 14.4531C42.3348 15.4531 42.6707 16.2754 43.3426 16.9199C44.0105 17.5645 44.782 17.8867 45.657 17.8867C46.6063 17.8867 47.407 17.5586 48.0594 16.9023C48.7117 16.2383 49.0379 15.4297 49.0379 14.4766C49.0379 13.5117 48.7156 12.7031 48.0711 12.0508C47.4305 11.3945 46.6375 11.0664 45.6922 11.0664C44.7508 11.0664 43.9559 11.3945 43.3074 12.0508C42.659 12.6992 42.3348 13.5 42.3348 14.4531ZM53.9396 11.2363V19H52.5744V11.2363H50.4943V9.95312H56.0138V11.2363H53.9396ZM58.2378 15.3262V19H56.8726V9.95312H58.4195C59.1773 9.95312 59.7495 10.0059 60.1362 10.1113C60.5269 10.2168 60.8706 10.416 61.1675 10.709C61.687 11.2168 61.9468 11.8574 61.9468 12.6309C61.9468 13.459 61.6695 14.1152 61.1148 14.5996C60.5601 15.084 59.812 15.3262 58.8706 15.3262H58.2378ZM58.2378 14.0605H58.7476C60.0015 14.0605 60.6284 13.5781 60.6284 12.6133C60.6284 11.6797 59.982 11.2129 58.689 11.2129H58.2378V14.0605Z" fill="white"/>
</svg>
