<svg width="21" height="24" viewBox="0 0 21 24" fill="none" xmlns="http://www.w3.org/2000/svg">
<path fill-rule="evenodd" clip-rule="evenodd" d="M14 2.33333V1.16667C14 0.522667 14.5227 0 15.1667 0C15.8107 0 16.3333 0.522667 16.3333 1.16667V2.33333C18.9105 2.33333 21 4.42283 21 7V18.6667C21 21.2438 18.9105 23.3333 16.3333 23.3333C12.9967 23.3333 8.00217 23.3333 4.66667 23.3333C2.0895 23.3333 0 21.2438 0 18.6667V7C0 4.42283 2.0895 2.33333 4.66667 2.33333V1.16667C4.66667 0.522667 5.18933 0 5.83333 0C6.47733 0 7 0.522667 7 1.16667V2.33333H14ZM18.6667 11.6667H2.33333V18.6667C2.33333 19.9547 3.3775 21 4.66667 21H16.3333C17.6213 21 18.6667 19.9547 18.6667 18.6667V11.6667ZM16.3333 4.66667V5.83333C16.3333 6.47733 15.8107 7 15.1667 7C14.5227 7 14 6.47733 14 5.83333V4.66667H7V5.83333C7 6.47733 6.47733 7 5.83333 7C5.18933 7 4.66667 6.47733 4.66667 5.83333V4.66667C3.3775 4.66667 2.33333 5.71083 2.33333 7V9.33333H18.6667V7C18.6667 5.71083 17.6213 4.66667 16.3333 4.66667Z" fill="#2C0085"/>
</svg>
