<svg width="24" height="24" viewBox="0 0 24 24" fill="none" xmlns="http://www.w3.org/2000/svg">
<path fill-rule="evenodd" clip-rule="evenodd" d="M23.3333 7C23.3333 5.37833 22.449 3.84183 20.8437 2.62617C18.7717 1.05583 15.4373 0 11.6667 0C7.896 0 4.56167 1.05583 2.48967 2.62617C0.884333 3.84183 0 5.37833 0 7V16.3333C0 17.955 0.884333 19.4915 2.48967 20.7072C4.56167 22.2775 7.896 23.3333 11.6667 23.3333C15.4373 23.3333 18.7717 22.2775 20.8437 20.7072C22.449 19.4915 23.3333 17.955 23.3333 16.3333V7ZM11.3692 2.33567C8.30667 2.38583 5.59417 3.20133 3.89783 4.48583C2.954 5.201 2.33333 6.04567 2.33333 7V16.3333C2.33333 17.2877 2.954 18.1323 3.89783 18.8475C5.649 20.174 8.48283 21 11.6667 21C14.8505 21 17.6843 20.174 19.4355 18.8475C20.3793 18.1323 21 17.2877 21 16.3333V7C21 6.04567 20.3793 5.201 19.4355 4.48583C17.6843 3.15933 14.8505 2.33333 11.6667 2.33333L11.3692 2.33567ZM10.1325 12.9908L11.7017 6.7165C11.8195 6.24283 12.2208 5.894 12.7062 5.84033C13.1915 5.78667 13.6582 6.041 13.8763 6.4785L15.8877 10.5H17.5C18.144 10.5 18.6667 11.0227 18.6667 11.6667C18.6667 12.3107 18.144 12.8333 17.5 12.8333H15.1667C14.7245 12.8333 14.3208 12.5837 14.1237 12.1882L13.2008 10.3425L11.6317 16.6168C11.5138 17.0905 11.1125 17.4393 10.6272 17.493C10.1418 17.5467 9.67517 17.2923 9.457 16.8548L7.44567 12.8333H5.83333C5.18933 12.8333 4.66667 12.3107 4.66667 11.6667C4.66667 11.0227 5.18933 10.5 5.83333 10.5H8.16667C8.60883 10.5 9.0125 10.7497 9.20967 11.1452L10.1325 12.9908Z" fill="#D25B5D"/>
</svg>
