<svg width="24" height="24" viewBox="0 0 24 24" fill="none" xmlns="http://www.w3.org/2000/svg">
<path d="M20.1673 3.8335H19.0007V1.50016C19.0007 1.19074 18.8777 0.893997 18.6589 0.675205C18.4402 0.456412 18.1434 0.333496 17.834 0.333496C17.5246 0.333496 17.2278 0.456412 17.009 0.675205C16.7902 0.893997 16.6673 1.19074 16.6673 1.50016V3.8335H7.33398V1.50016C7.33398 1.19074 7.21107 0.893997 6.99228 0.675205C6.77348 0.456412 6.47674 0.333496 6.16732 0.333496C5.8579 0.333496 5.56115 0.456412 5.34236 0.675205C5.12357 0.893997 5.00065 1.19074 5.00065 1.50016V3.8335H3.83398C2.90573 3.8335 2.01549 4.20225 1.35911 4.85862C0.702733 5.515 0.333984 6.40524 0.333984 7.3335V8.50016H23.6673V7.3335C23.6673 6.40524 23.2986 5.515 22.6422 4.85862C21.9858 4.20225 21.0956 3.8335 20.1673 3.8335Z" fill="#D25B5D"/>
<path d="M0.333984 20.1668C0.333984 21.0951 0.702733 21.9853 1.35911 22.6417C2.01549 23.2981 2.90573 23.6668 3.83398 23.6668H20.1673C21.0956 23.6668 21.9858 23.2981 22.6422 22.6417C23.2986 21.9853 23.6673 21.0951 23.6673 20.1668V10.8335H0.333984V20.1668Z" fill="#D25B5D"/>
</svg>
