<svg width="18" height="18" viewBox="0 0 18 18" fill="none" xmlns="http://www.w3.org/2000/svg">
<path d="M3 0H15C15.7956 0 16.5587 0.316071 17.1213 0.87868C17.6839 1.44129 18 2.20435 18 3V15C18 15.7956 17.6839 16.5587 17.1213 17.1213C16.5587 17.6839 15.7956 18 15 18H3C2.20435 18 1.44129 17.6839 0.878679 17.1213C0.31607 16.5587 0 15.7956 0 15V3C0 2.20435 0.31607 1.44129 0.878679 0.87868C1.44129 0.316071 2.20435 0 3 0ZM6.29 10.29C6.19627 10.383 6.12188 10.4936 6.07111 10.6154C6.02034 10.7373 5.9942 10.868 5.9942 11C5.9942 11.132 6.02034 11.2627 6.07111 11.3846C6.12188 11.5064 6.19627 11.617 6.29 11.71C6.38296 11.8037 6.49356 11.8781 6.61542 11.9289C6.73728 11.9797 6.86799 12.0058 7 12.0058C7.13201 12.0058 7.26272 11.9797 7.38458 11.9289C7.50644 11.8781 7.61704 11.8037 7.71 11.71L9 10.41L10.29 11.71C10.383 11.8037 10.4936 11.8781 10.6154 11.9289C10.7373 11.9797 10.868 12.0058 11 12.0058C11.132 12.0058 11.2627 11.9797 11.3846 11.9289C11.5064 11.8781 11.617 11.8037 11.71 11.71C11.8037 11.617 11.8781 11.5064 11.9289 11.3846C11.9797 11.2627 12.0058 11.132 12.0058 11C12.0058 10.868 11.9797 10.7373 11.9289 10.6154C11.8781 10.4936 11.8037 10.383 11.71 10.29L10.41 9L11.71 7.71C11.8983 7.5217 12.0041 7.2663 12.0041 7C12.0041 6.7337 11.8983 6.4783 11.71 6.29C11.5217 6.1017 11.2663 5.99591 11 5.99591C10.7337 5.99591 10.4783 6.1017 10.29 6.29L9 7.59L7.71 6.29C7.5217 6.1017 7.2663 5.99591 7 5.99591C6.7337 5.99591 6.4783 6.1017 6.29 6.29C6.1017 6.4783 5.99591 6.7337 5.99591 7C5.99591 7.2663 6.1017 7.5217 6.29 7.71L7.59 9L6.29 10.29Z" fill="#2C0085"/>
</svg>
