<svg width="21" height="24" viewBox="0 0 21 24" fill="none" xmlns="http://www.w3.org/2000/svg">
<path fill-rule="evenodd" clip-rule="evenodd" d="M11.6667 22.1667C11.6667 22.8118 12.1882 23.3333 12.8333 23.3333H16.3333C17.5712 23.3333 18.7577 22.8422 19.6327 21.9672C20.5077 21.0922 21 19.9045 21 18.6667C21 17.997 21 17.5 21 17.5C21 16.856 20.4773 16.3333 19.8333 16.3333H12.8333C12.1882 16.3333 11.6667 16.856 11.6667 17.5V22.1667ZM8.16667 23.3333C8.81067 23.3333 9.33333 22.8118 9.33333 22.1667V10.5C9.33333 9.856 8.81067 9.33333 8.16667 9.33333H1.16667C0.5215 9.33333 0 9.856 0 10.5V18.6667C0 19.9045 0.491164 21.0922 1.36616 21.9672C2.24116 22.8422 3.42883 23.3333 4.66667 23.3333H8.16667ZM18.6667 18.6667H14V21H16.3333C16.9517 21 17.5455 20.755 17.983 20.3175C18.4205 19.88 18.6667 19.2862 18.6667 18.6667ZM7 21V11.6667H2.33333V18.6667C2.33333 19.2862 2.57833 19.88 3.017 20.3175C3.4545 20.755 4.04717 21 4.66667 21H7ZM12.8333 0C12.1882 0 11.6667 0.522667 11.6667 1.16667V12.8333C11.6667 13.4785 12.1882 14 12.8333 14H19.8333C20.4773 14 21 13.4785 21 12.8333V4.66667C21 3.43 20.5077 2.24233 19.6327 1.36733C18.7577 0.49233 17.5712 0 16.3333 0H12.8333ZM14 2.33333V11.6667H18.6667V4.66667C18.6667 4.04833 18.4205 3.4545 17.983 3.017C17.5455 2.5795 16.9517 2.33333 16.3333 2.33333H14ZM9.33333 1.16667C9.33333 0.522667 8.81067 0 8.16667 0H4.66667C3.42883 0 2.24116 0.49233 1.36616 1.36733C0.491164 2.24233 0 3.43 0 4.66667V5.83333C0 6.4785 0.5215 7 1.16667 7H8.16667C8.81067 7 9.33333 6.4785 9.33333 5.83333V1.16667ZM7 2.33333H4.66667C4.04717 2.33333 3.4545 2.5795 3.017 3.017C2.57833 3.4545 2.33333 4.04833 2.33333 4.66667H7V2.33333Z" fill="#1D1E24"/>
</svg>
