<svg width="64" height="64" viewBox="0 0 64 64" fill="none" xmlns="http://www.w3.org/2000/svg">
<g filter="url(#filter0_d_216_847)">
<circle cx="32" cy="28" r="20" fill="#D25B5D"/>
</g>
<path d="M36.1667 20.4999C36.3856 20.2811 36.6454 20.1074 36.9314 19.989C37.2173 19.8705 37.5238 19.8096 37.8334 19.8096C38.1429 19.8096 38.4494 19.8705 38.7353 19.989C39.0213 20.1074 39.2812 20.2811 39.5 20.4999C39.7189 20.7188 39.8925 20.9786 40.011 21.2646C40.1294 21.5506 40.1904 21.8571 40.1904 22.1666C40.1904 22.4761 40.1294 22.7826 40.011 23.0686C39.8925 23.3546 39.7189 23.6144 39.5 23.8333L28.25 35.0833L23.6667 36.3333L24.9167 31.7499L36.1667 20.4999Z" stroke="white" stroke-width="1.66667" stroke-linecap="round" stroke-linejoin="round"/>
<defs>
<filter id="filter0_d_216_847" x="0" y="0" width="64" height="64" filterUnits="userSpaceOnUse" color-interpolation-filters="sRGB">
<feFlood flood-opacity="0" result="BackgroundImageFix"/>
<feColorMatrix in="SourceAlpha" type="matrix" values="0 0 0 0 0 0 0 0 0 0 0 0 0 0 0 0 0 0 127 0" result="hardAlpha"/>
<feOffset dy="4"/>
<feGaussianBlur stdDeviation="6"/>
<feComposite in2="hardAlpha" operator="out"/>
<feColorMatrix type="matrix" values="0 0 0 0 0 0 0 0 0 0 0 0 0 0 0 0 0 0 0.25 0"/>
<feBlend mode="normal" in2="BackgroundImageFix" result="effect1_dropShadow_216_847"/>
<feBlend mode="normal" in="SourceGraphic" in2="effect1_dropShadow_216_847" result="shape"/>
</filter>
</defs>
</svg>
