<svg width="30" height="30" viewBox="0 0 30 30" fill="none" xmlns="http://www.w3.org/2000/svg">
<path d="M11.3404 15.6776L11.3373 15.6745C11.2483 15.5862 11.1776 15.4811 11.1294 15.3654C11.0811 15.2496 11.0563 15.1254 11.0563 15C11.0563 14.8746 11.0811 14.7504 11.1294 14.6347C11.1776 14.5189 11.2483 14.4138 11.3373 14.3255L11.3389 14.3239L17.3373 8.3255C17.3375 8.3253 17.3377 8.32509 17.3379 8.32488C17.5148 8.14976 17.7534 8.05105 18.0023 8.05L18.0032 8.05C18.1282 8.04927 18.2521 8.07324 18.3679 8.12052C18.4836 8.16779 18.5889 8.23745 18.6777 8.3255L18.6777 8.32551C18.7667 8.41383 18.8374 8.51889 18.8856 8.63466C18.9339 8.75043 18.9587 8.8746 18.9587 9.00001C18.9587 9.12542 18.9339 9.24959 18.8856 9.36535C18.8374 9.48112 18.7667 9.58619 18.6777 9.6745L18.6761 9.6761L13.7411 14.6111L13.3534 14.9988L13.7399 15.3877L18.6449 20.3227L18.6461 20.3239C18.8254 20.5032 18.9261 20.7464 18.9261 21C18.9261 21.1256 18.9014 21.2499 18.8534 21.3659C18.8053 21.4819 18.7349 21.5873 18.6461 21.6761L19.0121 22.0421L18.6461 21.6761C18.5573 21.7649 18.4519 21.8353 18.3359 21.8834C18.2199 21.9314 18.0956 21.9561 17.97 21.9561C17.7168 21.9561 17.4739 21.8557 17.2946 21.6768C17.2944 21.6766 17.2941 21.6763 17.2939 21.6761L11.3404 15.6776L11.3404 15.6776ZM0.550003 15C0.550003 12.1421 1.39748 9.34831 2.98527 6.97202C4.57305 4.59573 6.82983 2.74363 9.47022 1.64995C12.1106 0.556263 15.016 0.270105 17.8191 0.827662C20.6221 1.38522 23.1968 2.76145 25.2177 4.78231C27.2386 6.80318 28.6148 9.37793 29.1723 12.181C29.7299 14.984 29.4437 17.8894 28.3501 20.5298C27.2564 23.1702 25.4043 25.427 23.028 27.0147C20.6517 28.6025 17.8579 29.45 15 29.45C13.1024 29.45 11.2234 29.0762 9.47022 28.3501C7.71707 27.6239 6.12412 26.5595 4.78231 25.2177C3.4405 23.8759 2.37612 22.2829 1.64994 20.5298C0.923763 18.7766 0.550003 16.8976 0.550003 15ZM2.45 15C2.45 17.4822 3.18605 19.9086 4.56506 21.9724C5.94407 24.0362 7.90411 25.6448 10.1973 26.5947C12.4905 27.5446 15.0139 27.7931 17.4484 27.3089C19.8828 26.8246 22.119 25.6293 23.8742 23.8742C25.6293 22.119 26.8246 19.8828 27.3088 17.4484C27.7931 15.0139 27.5446 12.4905 26.5947 10.1973C25.6448 7.90412 24.0362 5.94408 21.9724 4.56507C19.9086 3.18605 17.4822 2.45001 15 2.45001C11.6715 2.45001 8.47939 3.77224 6.12581 6.12582C3.77223 8.4794 2.45 11.6715 2.45 15Z" fill="#4F4F4F" stroke="white" stroke-width="1.1"/>
</svg>
