<svg width="24" height="24" viewBox="0 0 24 24" fill="none" xmlns="http://www.w3.org/2000/svg">
<path fill-rule="evenodd" clip-rule="evenodd" d="M7.72917 2.16183C8.5575 0.862163 10.0112 0 11.6667 0C13.3222 0 14.7758 0.862163 15.6042 2.16183C17.108 1.82816 18.746 2.247 19.9162 3.41717C21.0863 4.5885 21.5052 6.22532 21.1715 7.73032C22.4712 8.55866 23.3333 10.0123 23.3333 11.6667C23.3333 13.3222 22.4712 14.7758 21.1715 15.6042C21.5052 17.1092 21.0863 18.746 19.9162 19.9162C18.746 21.0875 17.108 21.5052 15.6042 21.1727C14.7758 22.4723 13.3222 23.3333 11.6667 23.3333C10.0112 23.3333 8.5575 22.4723 7.72917 21.1727C6.22417 21.5052 4.58733 21.0875 3.41717 19.9162C2.247 18.746 1.82817 17.1092 2.16067 15.6042C0.862173 14.7758 0 13.3222 0 11.6667C0 10.0123 0.862173 8.55866 2.16067 7.73032C1.82817 6.22532 2.247 4.5885 3.41717 3.41717C4.58733 2.247 6.22417 1.82816 7.72917 2.16183ZM7.79101 4.64566C8.09668 4.80433 8.45717 4.81949 8.77567 4.68766C9.09417 4.55582 9.338 4.28983 9.44184 3.962C9.7405 3.01816 10.6237 2.33333 11.6667 2.33333C12.7097 2.33333 13.5928 3.01816 13.8915 3.962C13.9953 4.28983 14.2392 4.55582 14.5577 4.68766C14.8762 4.81949 15.2355 4.80433 15.5412 4.64566C16.4208 4.18949 17.5292 4.32949 18.2665 5.06799C19.0038 5.80533 19.145 6.91367 18.6888 7.79217C18.5302 8.09783 18.5138 8.45834 18.6457 8.77567C18.7775 9.09417 19.0435 9.338 19.3713 9.44184C20.3163 9.7405 21 10.6237 21 11.6667C21 12.7097 20.3163 13.594 19.3713 13.8927C19.0435 13.9965 18.7775 14.2403 18.6457 14.5577C18.5138 14.8762 18.5302 15.2367 18.6888 15.5423C19.145 16.4208 19.0038 17.5292 18.2665 18.2665C17.5292 19.0038 16.4208 19.145 15.5412 18.6888C15.2355 18.5302 14.8762 18.515 14.5577 18.6468C14.2392 18.7787 13.9953 19.0447 13.8915 19.3725C13.5928 20.3163 12.7097 21 11.6667 21C10.6237 21 9.7405 20.3163 9.44184 19.3725C9.338 19.0447 9.09417 18.7787 8.77567 18.6468C8.45717 18.515 8.09668 18.5302 7.79101 18.6888C6.91251 19.145 5.80417 19.0038 5.06684 18.2665C4.3295 17.5292 4.18834 16.4208 4.6445 15.5423C4.80317 15.2367 4.81834 14.8762 4.68767 14.5577C4.55584 14.2403 4.28984 13.9965 3.96084 13.8927C3.01701 13.594 2.33333 12.7097 2.33333 11.6667C2.33333 10.6237 3.01701 9.7405 3.96084 9.44184C4.28984 9.338 4.55584 9.09417 4.68767 8.77567C4.81834 8.45834 4.80317 8.09783 4.6445 7.79217C4.18834 6.91367 4.3295 5.80533 5.06684 5.06799C5.80417 4.32949 6.91251 4.18949 7.79101 4.64566ZM11.6667 7C9.09067 7 7 9.09183 7 11.6667C7 14.2427 9.09067 16.3333 11.6667 16.3333C14.2427 16.3333 16.3333 14.2427 16.3333 11.6667C16.3333 9.09183 14.2427 7 11.6667 7ZM11.6667 9.33333C12.9547 9.33333 14 10.3798 14 11.6667C14 12.9547 12.9547 14 11.6667 14C10.3787 14 9.33333 12.9547 9.33333 11.6667C9.33333 10.3798 10.3787 9.33333 11.6667 9.33333Z" fill="#1D1E24"/>
</svg>
