<svg width="28" height="27" viewBox="0 0 28 27" fill="none" xmlns="http://www.w3.org/2000/svg">
<path d="M27.692 5.14832C26.7833 2.08481 24.07 -0.00261009 21 2.44953e-06H6.99997C3.93002 -0.00254311 1.21671 2.08488 0.307976 5.14832C0.105929 5.85062 0.00218014 6.57973 0 7.31298V19.0137C0.00141068 23.0519 3.13459 26.3252 6.99997 26.3266H21C24.8654 26.3251 27.9986 23.0519 27.9999 19.0137V7.31298C27.9978 6.57973 27.8941 5.85062 27.692 5.14832V5.14832ZM6.99997 2.92525H21C23.0576 2.93141 24.8099 4.48983 25.144 6.61094L13.9999 12.9586L2.85598 6.61094C3.19012 4.48983 4.9423 2.93134 6.99997 2.92525V2.92525ZM25.2 19.0137C25.1932 21.434 23.3168 23.3944 21 23.4014H6.99997C4.68319 23.3943 2.80673 21.434 2.8 19.0137V9.91641L13.328 15.913C13.7479 16.1476 14.2521 16.1476 14.672 15.913L25.2 9.91641V19.0137Z" fill="#1D1E24"/>
</svg>
