<svg width="24" height="24" viewBox="0 0 24 24" fill="none" xmlns="http://www.w3.org/2000/svg">
<path d="M2 3H8C9.06087 3 10.0783 3.42143 10.8284 4.17157C11.5786 4.92172 12 5.93913 12 7V21C12 20.2044 11.6839 19.4413 11.1213 18.8787C10.5587 18.3161 9.79565 18 9 18H2V3Z" fill="#D25B5D" stroke="#D25B5D" stroke-width="2" stroke-linecap="round" stroke-linejoin="round"/>
<path d="M22 3H16C14.9391 3 13.9217 3.42143 13.1716 4.17157C12.4214 4.92172 12 5.93913 12 7V21C12 20.2044 12.3161 19.4413 12.8787 18.8787C13.4413 18.3161 14.2044 18 15 18H22V3Z" fill="#D25B5D" stroke="#D25B5D" stroke-width="2" stroke-linecap="round" stroke-linejoin="round"/>
<path fill-rule="evenodd" clip-rule="evenodd" d="M20.2669 5V5.01C20.6302 5.01 20.9244 5.36 20.9244 5.79C20.9244 6.22 20.6302 6.57 20.2669 6.57H17.7471C17.3838 6.57 17.0887 6.22 17.0887 5.779C17.0887 5.35 17.3838 5 17.7471 5H20.2669ZM13.6577 11.0898H20.2669C20.6302 11.0898 20.9244 10.7398 20.9244 10.3098C20.9244 9.87981 20.6302 9.52881 20.2669 9.52881H13.6577C13.2952 9.52881 13.0002 9.87981 13.0002 10.3098C13.0002 10.7398 13.2952 11.0898 13.6577 11.0898ZM13.6574 15.66H20.2666C20.5195 15.7 20.764 15.55 20.8988 15.3C21.0337 15.04 21.0337 14.71 20.8988 14.46C20.764 14.2 20.5195 14.06 20.2666 14.09H13.6574C13.3211 14.13 13.0673 14.47 13.0673 14.88C13.0673 15.279 13.3211 15.62 13.6574 15.66Z" fill="white"/>
<path fill-rule="evenodd" clip-rule="evenodd" d="M3.73327 5V5.01C3.36994 5.01 3.07574 5.36 3.07574 5.79C3.07574 6.22 3.36994 6.57 3.73327 6.57H6.25298C6.61631 6.57 6.91135 6.22 6.91135 5.779C6.91135 5.35 6.61631 5 6.25298 5H3.73327ZM10.3423 11.0898H3.73327C3.36994 11.0898 3.07574 10.7398 3.07574 10.3098C3.07574 9.87981 3.36994 9.52881 3.73327 9.52881H10.3423C10.7048 9.52881 10.9999 9.87981 10.9999 10.3098C10.9999 10.7398 10.7048 11.0898 10.3423 11.0898ZM10.3425 15.66H3.7334C3.48051 15.7 3.23604 15.55 3.10116 15.3C2.96628 15.04 2.96628 14.71 3.10116 14.46C3.23604 14.2 3.48051 14.06 3.7334 14.09H10.3425C10.6788 14.13 10.9326 14.47 10.9326 14.88C10.9326 15.279 10.6788 15.62 10.3425 15.66Z" fill="white"/>
</svg>
