<svg width="21" height="22" viewBox="0 0 21 22" fill="none" xmlns="http://www.w3.org/2000/svg">
<path d="M8.99802 19.6598C8.69427 19.8347 8.34988 19.9267 7.99939 19.9264C7.64889 19.9262 7.30461 19.8339 7.00107 19.6586C6.69753 19.4834 6.4454 19.2314 6.26998 18.928C6.09455 18.6245 6.00199 18.2803 6.00157 17.9298M18.9959 10.8829C19.8444 9.41325 20.1111 7.68736 19.7368 6.08563C19.3617 4.4834 18.3768 3.13533 16.9998 2.34033C15.6219 1.54483 13.9634 1.36553 12.3877 1.84263C10.8135 2.31936 9.45214 3.41325 8.60364 4.88289C4.87014 11.3495 1.20557 11.6967 1.20557 11.6967L16.794 20.6967C16.794 20.6967 15.2624 17.3495 18.9959 10.8829Z" stroke="black" stroke-width="1.5" stroke-linecap="round" stroke-linejoin="round"/>
</svg>
