<svg width="28" height="30" viewBox="0 0 28 30" fill="none" xmlns="http://www.w3.org/2000/svg">
<path fill-rule="evenodd" clip-rule="evenodd" d="M12.638 5.21682V2.4028C12.638 1.65311 13.2484 1.04468 14.0006 1.04468C14.7513 1.04468 15.3631 1.65311 15.3631 2.4028V5.21682C17.3879 5.50746 19.2805 6.44456 20.7438 7.90317C22.5329 9.68638 23.5384 12.1052 23.5384 14.6259V19.7378L24.6408 21.9353C25.1681 22.9878 25.1122 24.2373 24.4909 25.2382C23.8709 26.2391 22.774 26.8489 21.5941 26.8489H15.3631C15.3631 27.5986 14.7513 28.207 14.0006 28.207C13.2484 28.207 12.638 27.5986 12.638 26.8489H6.40705C5.22571 26.8489 4.12888 26.2391 3.50892 25.2382C2.88759 24.2373 2.83172 22.9878 3.36039 21.9353L4.46268 19.7378V14.6259C4.46268 12.1052 5.46691 9.68638 7.25594 7.90317C8.72068 6.44456 10.6119 5.50746 12.638 5.21682V5.21682ZM14.0006 7.83526C12.1924 7.83526 10.4607 8.551 9.18259 9.82491C7.90452 11.0975 7.18779 12.825 7.18779 14.6259V20.0583C7.18779 20.2688 7.13739 20.4766 7.04337 20.6654C7.04337 20.6654 6.43702 21.8741 5.79662 23.1494C5.69171 23.3599 5.70261 23.6112 5.82661 23.8108C5.9506 24.0105 6.16996 24.1327 6.40705 24.1327H21.5941C21.8298 24.1327 22.0492 24.0105 22.1732 23.8108C22.2972 23.6112 22.3081 23.3599 22.2031 23.1494C21.5627 21.8741 20.9564 20.6654 20.9564 20.6654C20.8624 20.4766 20.8133 20.2688 20.8133 20.0583V14.6259C20.8133 12.825 20.0953 11.0975 18.8172 9.82491C17.5391 8.551 15.8073 7.83526 14.0006 7.83526V7.83526Z" fill="#1D1E24"/>
</svg>
