<svg width="28" height="24" viewBox="0 0 28 24" fill="none" xmlns="http://www.w3.org/2000/svg">
<path fill-rule="evenodd" clip-rule="evenodd" d="M4 17C4 14.34 9.33 13 12 13C14.67 13 20 14.34 20 17V20H4V17ZM5.9 17V18.1H18.1V17C18.1 16.36 14.97 14.9 12 14.9C9.03 14.9 5.9 16.36 5.9 17Z" fill="white"/>
<path fill-rule="evenodd" clip-rule="evenodd" d="M16 8C16 10.21 14.21 12 12 12C9.79 12 8 10.21 8 8C8 5.79 9.79 4 12 4C14.21 4 16 5.79 16 8ZM14.1 8C14.1 6.84 13.16 5.9 12 5.9C10.84 5.9 9.9 6.84 9.9 8C9.9 9.16 10.84 10.1 12 10.1C13.16 10.1 14.1 9.16 14.1 8Z" fill="white"/>
<path d="M22.9998 12.7271C22.1598 12.7271 21.3416 13.2671 21.058 14.0143H20.038C19.7489 13.2671 18.9307 12.7271 18.0907 12.7271C16.9998 12.7271 16.1816 13.5452 16.1816 14.6361C16.1816 16.2125 17.8944 17.7671 20.4907 20.118L20.5453 20.1725L20.5998 20.118C23.1962 17.7671 24.9089 16.2125 24.9089 14.6361C24.9089 13.5452 24.0907 12.7271 22.9998 12.7271Z" fill="white"/>
<path fill-rule="evenodd" clip-rule="evenodd" d="M20.5463 12.7762C21.1409 12.078 22.0518 11.6362 23.0009 11.6362C24.6809 11.6362 26.0009 12.9562 26.0009 14.6362C26.0009 16.6964 24.1494 18.3753 21.3442 20.9191L21.3373 20.9253L20.5463 21.6453L19.7554 20.9308L19.7339 20.9112C16.9369 18.3695 15.0918 16.6928 15.0918 14.6362C15.0918 12.9562 16.4118 11.6362 18.0918 11.6362C19.0409 11.6362 19.9518 12.078 20.5463 12.7762ZM20.5464 20.1726L20.6009 20.1181C23.1973 17.7671 24.91 16.2126 24.91 14.6362C24.91 13.5453 24.0918 12.7271 23.0009 12.7271C22.1609 12.7271 21.3428 13.2671 21.0591 14.0144H20.0391C19.75 13.2671 18.9318 12.7271 18.0918 12.7271C17.0009 12.7271 16.1828 13.5453 16.1828 14.6362C16.1828 16.2126 17.8955 17.7671 20.4918 20.1181L20.5464 20.1726Z" fill="white"/>
<path fill-rule="evenodd" clip-rule="evenodd" d="M20.0011 13.1729C20.447 12.6492 21.1302 12.3179 21.842 12.3179C23.102 12.3179 24.092 13.3079 24.092 14.5679C24.092 16.113 22.7033 17.3722 20.5994 19.28L20.5942 19.2847L20.0011 19.8247L19.4079 19.2888L19.3917 19.2741C17.294 17.3678 15.9102 16.1103 15.9102 14.5679C15.9102 13.3079 16.9002 12.3179 18.1602 12.3179C18.872 12.3179 19.5552 12.6492 20.0011 13.1729ZM20.0011 18.7201L20.042 18.6792C21.9893 16.9161 23.2738 15.7501 23.2738 14.5679C23.2738 13.7497 22.6602 13.1361 21.842 13.1361C21.212 13.1361 20.5984 13.5411 20.3856 14.1015H19.6206C19.4038 13.5411 18.7902 13.1361 18.1602 13.1361C17.342 13.1361 16.7284 13.7497 16.7284 14.5679C16.7284 15.7501 18.0129 16.9161 19.9602 18.6792L20.0011 18.7201Z" fill="white"/>
</svg>
