<svg width="28" height="24" viewBox="0 0 28 24" fill="none" xmlns="http://www.w3.org/2000/svg">
<path fill-rule="evenodd" clip-rule="evenodd" d="M4 17C4 14.34 9.33 13 12 13C14.67 13 20 14.34 20 17V20H4V17ZM5.9 17V18.1H18.1V17C18.1 16.36 14.97 14.9 12 14.9C9.03 14.9 5.9 16.36 5.9 17Z" fill="#D25B5D"/>
<path fill-rule="evenodd" clip-rule="evenodd" d="M16 8C16 10.21 14.21 12 12 12C9.79 12 8 10.21 8 8C8 5.79 9.79 4 12 4C14.21 4 16 5.79 16 8ZM14.1 8C14.1 6.84 13.16 5.9 12 5.9C10.84 5.9 9.9 6.84 9.9 8C9.9 9.16 10.84 10.1 12 10.1C13.16 10.1 14.1 9.16 14.1 8Z" fill="#D25B5D"/>
<path d="M23.0018 12.7271C22.1618 12.7271 21.3436 13.2671 21.06 14.0143H20.04C19.7509 13.2671 18.9327 12.7271 18.0927 12.7271C17.0018 12.7271 16.1836 13.5452 16.1836 14.6361C16.1836 16.2125 17.8963 17.7671 20.4927 20.118L20.5472 20.1725L20.6018 20.118C23.1981 17.7671 24.9109 16.2125 24.9109 14.6361C24.9109 13.5452 24.0927 12.7271 23.0018 12.7271Z" fill="white"/>
<path fill-rule="evenodd" clip-rule="evenodd" d="M20.5444 12.7762C21.1389 12.078 22.0498 11.6362 22.9989 11.6362C24.6789 11.6362 25.9989 12.9562 25.9989 14.6362C25.9989 16.6964 24.1474 18.3753 21.3422 20.9191L21.3353 20.9253L20.5444 21.6453L19.7535 20.9308L19.7319 20.9112C16.9349 18.3695 15.0898 16.6928 15.0898 14.6362C15.0898 12.9562 16.4098 11.6362 18.0898 11.6362C19.0389 11.6362 19.9498 12.078 20.5444 12.7762ZM20.5444 20.1726L20.599 20.1181C23.1953 17.7671 24.9081 16.2126 24.9081 14.6362C24.9081 13.5453 24.0899 12.7271 22.999 12.7271C22.159 12.7271 21.3408 13.2671 21.0572 14.0144H20.0372C19.7481 13.2671 18.9299 12.7271 18.0899 12.7271C16.999 12.7271 16.1808 13.5453 16.1808 14.6362C16.1808 16.2126 17.8935 17.7671 20.4899 20.1181L20.5444 20.1726Z" fill="white"/>
<path fill-rule="evenodd" clip-rule="evenodd" d="M19.9972 13.1729C20.4431 12.6492 21.1262 12.3179 21.8381 12.3179C23.0981 12.3179 24.0881 13.3079 24.0881 14.5679C24.0881 16.113 22.6994 17.3722 20.5955 19.28L20.5903 19.2847L19.9972 19.8247L19.404 19.2888L19.3878 19.2741C17.2901 17.3678 15.9062 16.1103 15.9062 14.5679C15.9062 13.3079 16.8963 12.3179 18.1562 12.3179C18.8681 12.3179 19.5512 12.6492 19.9972 13.1729ZM19.9972 18.7201L20.0381 18.6792C21.9854 16.9161 23.2699 15.7501 23.2699 14.5679C23.2699 13.7497 22.6563 13.1361 21.8381 13.1361C21.2081 13.1361 20.5945 13.5411 20.3817 14.1015H19.6167C19.3999 13.5411 18.7863 13.1361 18.1563 13.1361C17.3381 13.1361 16.7245 13.7497 16.7245 14.5679C16.7245 15.7501 18.009 16.9161 19.9563 18.6792L19.9972 18.7201Z" fill="#D25B5D"/>
</svg>
