<svg width="30" height="30" viewBox="0 0 30 30" fill="none" xmlns="http://www.w3.org/2000/svg">
<path fill-rule="evenodd" clip-rule="evenodd" d="M23.5719 27.8571H25.7148V30H23.5719V27.8571ZM27.8569 27.8571H29.9998V30H27.8569V27.8571ZM27.8569 17.1429H29.9997V25.7143H23.5711V23.5714H21.4283V30H17.1426V17.1429H23.5711V19.2857H27.8569V17.1429ZM4.28551 21.4286H8.57122V25.7143H4.28551V21.4286ZM0.000520426 30H12.8577V17.1429H0.000520426V30ZM25.7133 8.57143H21.4276V4.28571H25.7133V8.57143ZM17.1426 0V12.8571H29.9997V0H17.1426ZM4.28551 4.28571H8.57122V8.57143H4.28551V4.28571ZM0 12.8571H12.8571V0H0V12.8571Z" fill="#1D1E24"/>
</svg>
