<svg width="82" height="15" viewBox="0 0 82 15" fill="none" xmlns="http://www.w3.org/2000/svg">
<path d="M43 0L44.5716 5.18237H49.6574L45.5429 8.38525L47.1145 13.5676L43 10.3647L38.8855 13.5676L40.4571 8.38525L36.3426 5.18237H41.4284L43 0Z" fill="#FCC34E"/>
<path d="M59 0L60.5716 5.18237H65.6574L61.5429 8.38525L63.1145 13.5676L59 10.3647L54.8855 13.5676L56.4571 8.38525L52.3426 5.18237H57.4284L59 0Z" fill="#FCC34E"/>
<path d="M75 0L76.5716 5.18237H81.6574L77.5429 8.38525L79.1145 13.5676L75 10.3647L70.8855 13.5676L72.4571 8.38525L68.3426 5.18237H73.4284L75 0Z" fill="#E0E0E0"/>
<path d="M26 0L27.7961 5.18237H33.6085L28.9062 8.38525L30.7023 13.5676L26 10.3647L21.2977 13.5676L23.0938 8.38525L18.3915 5.18237H24.2039L26 0Z" fill="#FCC34E"/>
<path d="M8 0L9.79611 5.18237H15.6085L10.9062 8.38525L12.7023 13.5676L8 10.3647L3.29772 13.5676L5.09383 8.38525L0.391548 5.18237H6.20389L8 0Z" fill="#FCC34E"/>
</svg>
