<svg width="42" height="21" viewBox="0 0 42 21" fill="none" xmlns="http://www.w3.org/2000/svg">
<path d="M31.25 0H10.4167C7.654 0 5.00448 1.09747 3.05097 3.05097C1.09747 5.00447 0 7.65399 0 10.4167C0 13.1793 1.09747 15.8289 3.05097 17.7824C5.00448 19.7359 7.654 20.8333 10.4167 20.8333H31.25C34.0127 20.8333 36.6622 19.7359 38.6157 17.7824C40.5692 15.8289 41.6667 13.1793 41.6667 10.4167C41.6667 7.65399 40.5692 5.00447 38.6157 3.05097C36.6622 1.09747 34.0127 0 31.25 0ZM31.25 16.6667C29.5924 16.6667 28.0027 16.0082 26.8306 14.8361C25.6585 13.664 25 12.0743 25 10.4167C25 8.75906 25.6585 7.16935 26.8306 5.99725C28.0027 4.82515 29.5924 4.16667 31.25 4.16667C32.9076 4.16667 34.4973 4.82515 35.6694 5.99725C36.8415 7.16935 37.5 8.75906 37.5 10.4167C37.5 12.0743 36.8415 13.664 35.6694 14.8361C34.4973 16.0082 32.9076 16.6667 31.25 16.6667Z" fill="#D25B5D"/>
</svg>
