<svg width="48" height="48" viewBox="0 0 48 48" fill="none" xmlns="http://www.w3.org/2000/svg">
<path d="M32.0005 32.0001L24.0005 24.0001L16.0005 32.0001" stroke="#172B4D" stroke-width="3.25" stroke-linecap="round" stroke-linejoin="round"/>
<path d="M24 24.0001V42.0001" stroke="#172B4D" stroke-width="3.25" stroke-linecap="round" stroke-linejoin="round"/>
<path d="M40.7799 36.7801C42.7306 35.7166 44.2716 34.0339 45.1597 31.9973C46.0477 29.9608 46.2323 27.6866 45.6843 25.5335C45.1363 23.3804 43.8869 21.4711 42.1333 20.107C40.3796 18.7429 38.2216 18.0016 35.9999 18.0001H33.4799C32.8746 15.6586 31.7462 13.4848 30.1798 11.6421C28.6134 9.79939 26.6496 8.33579 24.4361 7.3613C22.2226 6.38682 19.817 5.92681 17.4002 6.01585C14.9833 6.1049 12.6181 6.74069 10.4823 7.87542C8.34649 9.01015 6.49574 10.6143 5.06916 12.5673C3.64259 14.5202 2.6773 16.7712 2.24588 19.1509C1.81446 21.5306 1.92813 23.9772 2.57835 26.3066C3.22856 28.6361 4.3984 30.7878 5.99992 32.6001" stroke="#172B4D" stroke-width="3.25" stroke-linecap="round" stroke-linejoin="round"/>
<path d="M32.0005 32.0001L24.0005 24.0001L16.0005 32.0001" stroke="#172B4D" stroke-width="3.25" stroke-linecap="round" stroke-linejoin="round"/>
</svg>
