<svg width="84" height="84" viewBox="0 0 84 84" fill="none" xmlns="http://www.w3.org/2000/svg">
<circle cx="42" cy="42" r="42" fill="#D2D5EB" fill-opacity="0.12"/>
<path d="M50.5013 44.6673C48.5013 44.6673 45.3846 45.234 43.0013 46.334C40.618 45.2173 37.5013 44.6673 35.5013 44.6673C31.8846 44.6673 24.668 46.4673 24.668 50.084V54.6673H61.3346V50.084C61.3346 46.4673 54.118 44.6673 50.5013 44.6673ZM43.8346 52.1673H27.168V50.084C27.168 49.184 31.4346 47.1673 35.5013 47.1673C39.568 47.1673 43.8346 49.184 43.8346 50.084V52.1673ZM58.8346 52.1673H46.3346V50.084C46.3346 49.3173 46.0013 48.6507 45.468 48.0507C46.9346 47.5507 48.7346 47.1673 50.5013 47.1673C54.568 47.1673 58.8346 49.184 58.8346 50.084V52.1673ZM35.5013 43.0007C38.718 43.0007 41.3346 40.384 41.3346 37.1673C41.3346 33.9507 38.718 31.334 35.5013 31.334C32.2846 31.334 29.668 33.9507 29.668 37.1673C29.668 40.384 32.2846 43.0007 35.5013 43.0007ZM35.5013 33.834C37.3346 33.834 38.8346 35.334 38.8346 37.1673C38.8346 39.0007 37.3346 40.5007 35.5013 40.5007C33.668 40.5007 32.168 39.0007 32.168 37.1673C32.168 35.334 33.668 33.834 35.5013 33.834ZM50.5013 43.0007C53.718 43.0007 56.3346 40.384 56.3346 37.1673C56.3346 33.9507 53.718 31.334 50.5013 31.334C47.2846 31.334 44.668 33.9507 44.668 37.1673C44.668 40.384 47.2846 43.0007 50.5013 43.0007ZM50.5013 33.834C52.3346 33.834 53.8346 35.334 53.8346 37.1673C53.8346 39.0007 52.3346 40.5007 50.5013 40.5007C48.668 40.5007 47.168 39.0007 47.168 37.1673C47.168 35.334 48.668 33.834 50.5013 33.834Z" fill="#2C0085"/>
</svg>
